<?xml version="1.0" encoding="UTF-8" standalone="no"?>
<!-- Created with Inkscape (http://www.inkscape.org/) -->

<svg
   width="14.845819"
   height="29.765457"
   viewBox="0 0 3.9279561 7.8754439"
   version="1.1"
   id="svg1"
   xmlns="http://www.w3.org/2000/svg"
   xmlns:svg="http://www.w3.org/2000/svg">
  <defs
     id="defs1" />
  <g
     id="layer1"
     transform="translate(-4.1130535,-1.6521207)">
    <g
       id="path1"
       transform="rotate(-90,7.7831997,4.6269556)">
      <path
         style="color:#000000;fill:#1a1a1a;stroke-linecap:round;stroke-linejoin:round;-inkscape-stroke:none"
         d="M 3.4123363,1.4865623 6.8207466,4.3711944 M 10.229157,1.4865623 6.8207466,4.3711944"
         id="path2" />
      <path
         style="color:#000000;fill:#000000;stroke-linecap:round;stroke-linejoin:round;-inkscape-stroke:none"
         d="m 3.3691406,0.95898438 a 0.52916503,0.52916503 0 0 0 -0.3613281,0.18554682 0.52916503,0.52916503 0 0 0 0.0625,0.7460938 l 3.4082031,2.8847656 a 0.52916503,0.52916503 0 0 0 0.15625,0.048828 0.52916503,0.52916503 0 0 0 0.1855469,0.060547 0.52916503,0.52916503 0 0 0 0.1875,-0.060547 0.52916503,0.52916503 0 0 0 0.1542969,-0.048828 L 10.570313,1.890625 a 0.52916503,0.52916503 0 0 0 0.0625,-0.7460938 0.52916503,0.52916503 0 0 0 -0.7460942,-0.0625 L 6.8203125,3.6777344 3.7539063,1.0820312 A 0.52916503,0.52916503 0 0 0 3.3691406,0.95898438 Z"
         id="path3" />
    </g>
  </g>
</svg>
